<svg xmlns="http://www.w3.org/2000/svg" version="1.1" xmlns:xlink="http://www.w3.org/1999/xlink" xmlns:svgjs="http://svgjs.dev/svgjs" width="1500" height="935" viewBox="0 0 1500 935"><g transform="matrix(1,0,0,1,-0.9090909090909918,0.3785425101214628)"><svg viewBox="0 0 396 247" data-background-color="#ffffff" preserveAspectRatio="xMidYMid meet" height="935" width="1500" xmlns="http://www.w3.org/2000/svg" xmlns:xlink="http://www.w3.org/1999/xlink"><g id="tight-bounds" transform="matrix(1,0,0,1,0.2400000000000091,-0.09999999999999432)"><svg viewBox="0 0 395.52 247.2" height="247.2" width="395.52"><g><svg></svg></g><g><svg viewBox="0 0 395.52 247.2" height="247.2" width="395.52"><g transform="matrix(1,0,0,1,75.54432,91.3597551356408)"><svg viewBox="0 0 244.43135999999998 64.48048972871841" height="64.48048972871841" width="244.43135999999998"><g><svg viewBox="0 0 244.43135999999998 64.48048972871841" height="64.48048972871841" width="244.43135999999998"><g><svg viewBox="0 0 244.43135999999998 64.48048972871841" height="64.48048972871841" width="244.43135999999998"><g><svg viewBox="0 0 244.43135999999998 64.48048972871841" height="64.48048972871841" width="244.43135999999998"><g id="textblocktransform"><svg viewBox="0 0 244.43135999999998 64.48048972871841" height="64.48048972871841" width="244.43135999999998" id="textblock"><g><svg viewBox="0 0 244.43135999999998 64.48048972871841" height="64.48048972871841" width="244.43135999999998"><g transform="matrix(1,0,0,1,0,0)"><svg width="244.43135999999998" viewBox="1.4333333333349998 -37 178.156666666665 47" height="64.48048972871841" data-palette-color="#18181b"><path d="M15.5-31.35L16.4-31.15 4.25-0.95Q4.05-0.45 3.7-0.2 3.35 0.05 2.9 0.05L2.9 0.05Q2.2 0.05 1.85-0.33 1.5-0.7 1.45-1.25L1.45-1.25Q1.4-1.5 1.5-1.85L1.5-1.85 14.7-34.15Q14.95-34.7 15.33-34.93 15.7-35.15 16.2-35.15L16.2-35.15Q16.7-35.15 17.07-34.88 17.45-34.6 17.65-34.15L17.65-34.15 30.8-2Q30.9-1.7 30.9-1.4L30.9-1.4Q30.9-0.7 30.45-0.33 30 0.05 29.4 0.05L29.4 0.05Q28.9 0.05 28.53-0.23 28.15-0.5 27.95-0.95L27.95-0.95 15.5-31.35ZM24.5-10.1L7.15-10.1 8.4-13.05 23.9-13.05 24.5-10.1ZM39.6-35.5L39.6-1.5Q39.6-0.9 39.15-0.45 38.7 0 38.1 0L38.1 0Q37.45 0 37.02-0.45 36.6-0.9 36.6-1.5L36.6-1.5 36.6-35.5Q36.6-36.1 37.05-36.55 37.5-37 38.1-37L38.1-37Q38.75-37 39.17-36.55 39.6-36.1 39.6-35.5L39.6-35.5ZM63.79-35L63.79-35Q64.39-35 64.87-34.55 65.34-34.1 65.34-33.45L65.34-33.45 65.34-1.55Q65.29-0.9 64.82-0.45 64.34 0 63.74 0L63.74 0Q63.04 0 62.62-0.45 62.19-0.9 62.19-1.55L62.19-1.55 62.19-33.45Q62.19-34.1 62.64-34.55 63.09-35 63.79-35ZM87.24-35L87.24-35Q87.94-35 88.37-34.55 88.79-34.1 88.79-33.45L88.79-33.45 88.79-1.55Q88.74-0.9 88.32-0.45 87.89 0 87.19 0L87.19 0Q86.54 0 86.09-0.45 85.64-0.9 85.64-1.55L85.64-1.55 85.64-33.45Q85.64-34.1 86.12-34.55 86.59-35 87.24-35ZM63.34-16.45L63.54-19.35 87.29-19.35 87.24-16.45 63.34-16.45ZM118.19-25.55L118.19-25.55Q118.84-25.55 119.27-25.1 119.69-24.65 119.69-24L119.69-24 119.69-1.5Q119.69-0.9 119.24-0.45 118.79 0 118.19 0L118.19 0Q117.49 0 117.09-0.45 116.69-0.9 116.69-1.5L116.69-1.5 116.69-7.45 117.54-7.85Q117.54-6.45 116.77-5 115.99-3.55 114.64-2.3 113.29-1.05 111.47-0.28 109.64 0.5 107.49 0.5L107.49 0.5Q104.14 0.5 101.47-1.25 98.79-3 97.27-6.05 95.74-9.1 95.74-12.9L95.74-12.9Q95.74-16.8 97.29-19.78 98.84-22.75 101.49-24.45 104.14-26.15 107.44-26.15L107.44-26.15Q109.59-26.15 111.47-25.4 113.34-24.65 114.74-23.35 116.14-22.05 116.94-20.38 117.74-18.7 117.74-16.9L117.74-16.9 116.69-17.65 116.69-24Q116.69-24.65 117.09-25.1 117.49-25.55 118.19-25.55ZM107.79-2.3L107.79-2.3Q110.44-2.3 112.49-3.68 114.54-5.05 115.72-7.48 116.89-9.9 116.89-12.9L116.89-12.9Q116.89-15.85 115.72-18.2 114.54-20.55 112.49-21.95 110.44-23.35 107.79-23.35L107.79-23.35Q105.19-23.35 103.12-22 101.04-20.65 99.87-18.3 98.69-15.95 98.69-12.9L98.69-12.9Q98.69-9.9 99.84-7.48 100.99-5.05 103.07-3.68 105.14-2.3 107.79-2.3ZM145.99-26L145.99-26Q146.64-26 147.06-25.55 147.49-25.1 147.49-24.5L147.49-24.5 147.49-2.45Q147.49 1.6 145.89 4.38 144.29 7.15 141.59 8.58 138.89 10 135.44 10L135.44 10Q133.29 10 131.46 9.53 129.64 9.05 128.49 8.3L128.49 8.3Q127.89 7.95 127.59 7.45 127.29 6.95 127.54 6.4L127.54 6.4Q127.79 5.7 128.31 5.48 128.84 5.25 129.39 5.5L129.39 5.5Q130.24 5.95 131.84 6.6 133.44 7.25 135.49 7.25L135.49 7.25Q138.24 7.25 140.26 6.1 142.29 4.95 143.39 2.78 144.49 0.6 144.49-2.4L144.49-2.4 144.49-6 144.84-4.8Q144.09-3.25 142.71-2.05 141.34-0.85 139.56-0.18 137.79 0.5 135.79 0.5L135.79 0.5Q132.79 0.5 130.81-0.73 128.84-1.95 127.89-4.1 126.94-6.25 126.94-9.15L126.94-9.15 126.94-24.5Q126.94-25.1 127.34-25.55 127.74-26 128.44-26L128.44-26Q129.09-26 129.51-25.55 129.94-25.1 129.94-24.5L129.94-24.5 129.94-9.6Q129.94-6.1 131.46-4.2 132.99-2.3 136.44-2.3L136.44-2.3Q138.59-2.3 140.39-3.33 142.19-4.35 143.34-6.03 144.49-7.7 144.49-9.6L144.49-9.6 144.49-24.5Q144.49-25.1 144.91-25.55 145.34-26 145.99-26ZM178.09-25.55L178.09-25.55Q178.74-25.55 179.16-25.1 179.59-24.65 179.59-24L179.59-24 179.59-1.5Q179.59-0.9 179.14-0.45 178.69 0 178.09 0L178.09 0Q177.39 0 176.99-0.45 176.59-0.9 176.59-1.5L176.59-1.5 176.59-7.45 177.44-7.85Q177.44-6.45 176.66-5 175.89-3.55 174.54-2.3 173.19-1.05 171.36-0.28 169.54 0.5 167.39 0.5L167.39 0.5Q164.04 0.5 161.36-1.25 158.69-3 157.16-6.05 155.64-9.1 155.64-12.9L155.64-12.9Q155.64-16.8 157.19-19.78 158.74-22.75 161.39-24.45 164.04-26.15 167.34-26.15L167.34-26.15Q169.49-26.15 171.36-25.4 173.24-24.65 174.64-23.35 176.04-22.05 176.84-20.38 177.64-18.7 177.64-16.9L177.64-16.9 176.59-17.65 176.59-24Q176.59-24.65 176.99-25.1 177.39-25.55 178.09-25.55ZM167.69-2.3L167.69-2.3Q170.34-2.3 172.39-3.68 174.44-5.05 175.61-7.48 176.79-9.9 176.79-12.9L176.79-12.9Q176.79-15.85 175.61-18.2 174.44-20.55 172.39-21.95 170.34-23.35 167.69-23.35L167.69-23.35Q165.09-23.35 163.01-22 160.94-20.65 159.76-18.3 158.59-15.95 158.59-12.9L158.59-12.9Q158.59-9.9 159.74-7.48 160.89-5.05 162.96-3.68 165.04-2.3 167.69-2.3Z" opacity="1" transform="matrix(1,0,0,1,0,0)" fill="#18181b" class="wordmark-text-0" data-fill-palette-color="primary" id="text-0"></path></svg></g></svg></g></svg></g></svg></g></svg></g></svg></g></svg></g><g><path d="M0 123.6c0-68.262 55.338-123.6 123.6-123.6 54.319 0 100.454 35.04 117.035 83.749h-3.077c-16.461-47.075-61.266-80.841-113.958-80.842-66.657 0-120.693 54.036-120.693 120.693 0 66.657 54.036 120.693 120.693 120.693 52.692 0 97.497-33.766 113.958-80.842h3.077c-16.581 48.709-62.716 83.749-117.035 83.749-68.262 0-123.6-55.338-123.6-123.6z" fill="#18181b" stroke="transparent" data-fill-palette-color="tertiary"></path></g></svg></g><defs></defs></svg><rect width="395.52" height="247.2" fill="none" stroke="none" visibility="hidden"></rect></g></svg></g></svg>